<svg width="880" height="880" viewBox="0 0 880 880" fill="none" xmlns="http://www.w3.org/2000/svg">
<g clip-path="url(#clip0_38_2)">
<path d="M509.269 123.523H534.44C534.44 123.523 543.273 187.101 567.25 213.854C589.967 239.203 632.492 232.253 632.492 232.253C632.492 232.253 632.507 232.301 632.53 232.382C648.979 227.901 667.734 228.885 680.523 232.261C700.574 237.551 715.055 246.761 715.055 246.761C715.055 246.761 745.993 266.312 745.257 303.623C744.687 332.574 722.961 367.039 723.132 369.508C725.042 397.14 727.178 396.197 724.295 406.041C717.294 429.941 618.162 420.084 616.401 409.13C614.803 399.192 619.408 382.575 617.095 360.23C613.449 325.004 606.206 312.46 597.965 290.734C552.444 287.042 523.028 261.321 513.876 220.015C504.432 177.406 509.269 123.523 509.269 123.523Z" fill="white"/>
<path d="M656.395 230.285C665.72 230.285 674.222 231.528 680.293 233.131C699.966 238.32 714.428 247.428 714.572 247.517C714.879 247.712 745.074 267.255 744.358 303.606C743.929 325.373 731.427 350.292 725.42 362.266C722.956 367.176 722.179 368.767 722.234 369.569C722.921 379.502 723.625 385.647 724.139 390.132C725.02 397.824 725.23 399.649 723.432 405.786C719.711 418.493 687.691 421.071 661.404 419.42C635.76 417.809 617.89 412.724 617.289 408.984C616.615 404.798 617.091 399.168 617.643 392.646C618.386 383.85 619.312 372.904 617.99 360.137C614.968 330.935 609.427 317.115 603.011 301.109C601.649 297.713 600.241 294.203 598.806 290.418C598.683 290.09 598.384 289.868 598.038 289.839C553.538 286.228 523.959 261.362 514.754 219.821C506.079 180.681 509.548 131.356 510.099 124.422H533.662C534.78 131.789 544.132 189.408 566.58 214.457C588.074 238.442 627.427 233.859 632.169 233.208C632.35 233.289 632.559 233.309 632.767 233.252C640.603 231.115 648.775 230.285 656.395 230.285ZM675.708 421.679C699.405 421.679 721.819 417.691 725.158 406.292C727.059 399.807 726.819 397.714 725.927 389.93C725.415 385.461 724.713 379.336 724.029 369.447C724.094 368.921 725.519 366.079 727.028 363.072C733.095 350.98 745.72 325.818 746.157 303.643C746.893 266.256 715.849 246.198 715.535 245.999C715.391 245.906 700.708 236.657 680.753 231.39C669.066 228.306 650.37 226.707 632.755 231.39C632.627 231.35 632.489 231.342 632.347 231.362C631.926 231.431 590.038 237.936 567.92 213.255C544.398 187.008 535.419 124.029 535.33 123.398C535.269 122.952 534.889 122.62 534.44 122.62H509.269C508.804 122.62 508.415 122.977 508.375 123.442C508.326 123.981 503.63 177.953 512.997 220.214C522.348 262.41 552.286 287.738 597.326 291.584C598.698 295.183 600.04 298.534 601.341 301.777C607.706 317.657 613.204 331.372 616.2 360.323C617.505 372.924 616.587 383.773 615.85 392.493C615.266 399.406 614.804 404.867 615.513 409.271C616.594 415.991 643.482 420.096 661.291 421.217C666.049 421.517 670.907 421.679 675.708 421.679Z" fill="black"/>
<path d="M195.473 766.415H634.868C648.512 766.415 658.91 753.926 656.727 740.159L562.228 144.326C560.489 133.368 551.231 125.317 540.37 125.317H100.976C87.3304 125.317 76.931 137.805 79.117 151.568L173.614 747.401C175.35 758.359 184.612 766.415 195.473 766.415Z" fill="white"/>
<path d="M540.37 126.215C550.842 126.215 559.661 133.89 561.339 144.468L655.838 740.301C656.854 746.709 655.042 753.19 650.866 758.08C646.832 762.804 641.001 765.512 634.867 765.512H195.473C185 765.512 176.18 757.837 174.504 747.259L80.0034 151.426C78.9873 145.018 80.8008 138.537 84.9743 133.647C89.0101 128.923 94.8393 126.215 100.976 126.215H540.37ZM195.473 767.313H634.867C641.528 767.313 647.858 764.374 652.234 759.25C656.752 753.955 658.713 746.948 657.615 740.017L563.116 144.184C561.299 132.728 551.732 124.418 540.37 124.418H100.976C94.313 124.418 87.982 127.357 83.6061 132.481C79.0885 137.772 77.1293 144.779 78.2263 151.709L172.727 747.543C174.54 758.999 184.11 767.313 195.473 767.313Z" fill="black"/>
<path d="M209.434 764.864H648.83C662.474 764.864 672.872 752.4 670.69 738.657L576.19 143.856C574.453 132.919 565.194 124.879 554.331 124.879H114.938C101.292 124.879 90.8967 137.347 93.0786 151.086L187.575 745.887C189.316 756.829 198.573 764.864 209.434 764.864Z" fill="white"/>
<path d="M554.331 125.778C564.805 125.778 573.625 133.441 575.302 143.998L669.801 738.799C670.816 745.187 669.009 751.647 664.843 756.529C660.809 761.253 654.972 763.965 648.83 763.965H209.434C198.962 763.965 190.141 756.303 188.465 745.745L93.9649 150.944C92.9529 144.557 94.7583 138.096 98.9237 133.214C102.96 128.49 108.797 125.778 114.938 125.778H554.331ZM209.434 765.763H648.83C655.5 765.763 661.835 762.824 666.212 757.695C670.72 752.417 672.676 745.426 671.578 738.516L577.079 143.715C575.262 132.279 565.695 123.981 554.331 123.981H114.938C108.267 123.981 101.931 126.92 97.5555 132.048C93.0461 137.327 91.0909 144.318 92.1879 151.228L186.688 746.029C188.506 757.464 198.071 765.763 209.434 765.763Z" fill="black"/>
<path d="M281.278 180.118H408.648C429.006 180.118 444.473 161.469 441.081 141.015L438.106 123.086C437.802 121.269 436.256 119.937 434.446 119.937H238.26C235.961 119.937 234.216 122.042 234.601 124.349L237.612 142.517C241.215 164.226 259.67 180.118 281.278 180.118Z" fill="white"/>
<path d="M434.446 120.835C435.822 120.835 436.988 121.843 437.219 123.236L440.194 141.164C441.789 150.787 439.113 160.546 432.851 167.934C426.771 175.107 417.95 179.22 408.648 179.22H281.278C260.034 179.22 242.044 163.72 238.498 142.367L235.487 124.203C235.345 123.349 235.58 122.483 236.134 121.827C236.669 121.196 237.442 120.835 238.26 120.835H434.446ZM281.278 181.017H408.648C418.48 181.017 427.799 176.673 434.223 169.096C440.829 161.303 443.651 151.017 441.967 140.869L438.992 122.94C438.615 120.678 436.705 119.038 434.446 119.038H238.26C236.916 119.038 235.64 119.629 234.762 120.665C233.867 121.722 233.483 123.118 233.71 124.495L236.725 142.662C240.413 164.886 259.151 181.017 281.278 181.017Z" fill="black"/>
<path d="M344.767 100.368L344.706 100.004C343.682 93.7539 338.391 89.1756 332.194 89.1756C324.349 89.1756 318.382 96.3891 319.685 104.307L319.742 104.667C320.77 110.921 326.061 115.5 332.254 115.5C340.099 115.5 346.066 108.286 344.767 100.368ZM367.019 159.178H312.626C310.565 159.178 308.804 157.813 308.472 155.729L301.02 107.27C298.033 87.9814 312.601 70.5062 331.692 70.5062C346.961 70.5062 359.963 81.8163 362.359 97.2432L371.172 154.36C371.585 156.98 369.609 159.178 367.019 159.178Z" fill="white"/>
<path d="M343.88 100.515C344.467 104.093 343.471 107.712 341.148 110.448C338.909 113.088 335.667 114.598 332.254 114.598C326.478 114.598 321.588 110.363 320.628 104.522L320.572 104.162C319.985 100.583 320.981 96.9604 323.304 94.2239C325.543 91.5887 328.785 90.0747 332.193 90.0747C337.974 90.0747 342.86 94.313 343.819 100.15L343.88 100.515ZM332.254 116.399C336.197 116.399 339.937 114.654 342.52 111.614C345.184 108.473 346.329 104.324 345.653 100.223L345.596 99.8588C344.491 93.1472 338.856 88.2774 332.193 88.2774C328.255 88.2774 324.514 90.0222 321.932 93.0582C319.264 96.1994 318.123 100.353 318.795 104.453L318.855 104.813C319.956 111.529 325.591 116.399 332.254 116.399ZM331.692 71.4054C346.608 71.4054 359.133 82.3309 361.469 97.3814L370.281 154.499C370.435 155.478 370.184 156.413 369.569 157.13C368.945 157.859 368.018 158.275 367.018 158.275H312.625C310.954 158.275 309.614 157.17 309.363 155.588L301.91 107.133C300.502 98.0372 303.096 88.8442 309.035 81.918C314.759 75.2388 323.017 71.4054 331.692 71.4054ZM312.625 160.077H367.018C368.544 160.077 369.973 159.429 370.937 158.3C371.884 157.191 372.293 155.705 372.058 154.223L363.25 97.1062C360.772 81.1732 347.499 69.6081 331.692 69.6081C322.49 69.6081 313.735 73.6682 307.667 80.7441C301.388 88.075 298.64 97.7903 300.133 107.408L307.586 155.867C307.978 158.344 310.051 160.077 312.625 160.077Z" fill="black"/>
<path d="M312.083 288.018L350.163 529.165C350.462 531.064 349.924 532.987 348.685 534.436C347.487 535.836 345.75 536.642 343.929 536.642H325.506C322.389 536.642 319.77 534.363 319.272 531.222L281.185 290.074C280.885 288.176 281.424 286.253 282.662 284.804C283.861 283.403 285.593 282.597 287.419 282.597H305.849C308.966 282.597 311.585 284.877 312.083 288.018ZM325.506 538.443H343.929C346.281 538.443 348.511 537.407 350.053 535.606C351.632 533.756 352.32 531.307 351.94 528.886L313.86 287.738C313.225 283.715 309.857 280.796 305.849 280.796H287.419C285.067 280.796 282.836 281.832 281.294 283.634C279.715 285.488 279.027 287.937 279.408 290.353L317.495 531.501C318.131 535.525 321.499 538.443 325.506 538.443Z" fill="black"/>
<path d="M369.953 344.495C373.082 344.495 375.705 346.787 376.191 349.94L403.831 529.189C404.122 531.084 403.58 532.999 402.341 534.444C401.143 535.84 399.414 536.642 397.593 536.642H379.162C376.037 536.642 373.414 534.351 372.928 531.197L345.276 351.948C344.985 350.053 345.527 348.139 346.766 346.693C347.964 345.297 349.697 344.495 351.514 344.495H369.953ZM379.162 538.443H397.593C399.937 538.443 402.167 537.411 403.709 535.618C405.288 533.772 405.98 531.331 405.608 528.914L377.968 349.669C377.345 345.629 373.977 342.694 369.953 342.694H351.514C349.171 342.694 346.94 343.726 345.402 345.524C343.819 347.365 343.127 349.806 343.499 352.223L371.147 531.473C371.771 535.508 375.143 538.443 379.162 538.443Z" fill="black"/>
<path d="M436.826 396.358L457.455 529.181C457.75 531.08 457.208 532.995 455.969 534.44C454.771 535.84 453.039 536.642 451.221 536.642H432.791C429.665 536.642 427.046 534.355 426.557 531.205L405.92 398.378C405.624 396.484 406.167 394.565 407.401 393.12C408.604 391.719 410.332 390.918 412.154 390.918H430.592C433.713 390.918 436.337 393.205 436.826 396.358ZM432.791 538.443H451.221C453.565 538.443 455.795 537.411 457.338 535.614C458.916 533.768 459.609 531.323 459.232 528.906L438.603 396.083C437.976 392.047 434.608 389.121 430.592 389.121H412.154C409.806 389.121 407.58 390.149 406.037 391.95C404.455 393.796 403.766 396.241 404.139 398.658L424.775 531.481C425.403 535.512 428.775 538.443 432.791 538.443Z" fill="black"/>
<path d="M491.236 437.34C494.353 437.34 496.972 439.623 497.47 442.769L511.071 529.169C511.367 531.068 510.828 532.987 509.589 534.436C508.391 535.84 506.659 536.642 504.837 536.642H486.411C483.294 536.642 480.675 534.363 480.177 531.218L466.567 444.817C466.272 442.918 466.81 441 468.049 439.551C469.247 438.146 470.98 437.34 472.801 437.34H491.236ZM486.411 538.443H504.837C507.185 538.443 509.415 537.407 510.958 535.606C512.54 533.756 513.229 531.307 512.848 528.89L499.247 442.489C498.611 438.466 495.243 435.543 491.236 435.543H472.801C470.453 435.543 468.223 436.575 466.681 438.381C465.098 440.231 464.41 442.68 464.79 445.096L478.4 531.497C479.035 535.521 482.403 538.443 486.411 538.443Z" fill="black"/>
<path d="M558.015 481.039L564.851 529.266C565.118 531.153 564.562 533.047 563.325 534.472C562.128 535.852 560.407 536.642 558.603 536.642H540.144C537.027 536.642 534.343 534.27 533.894 531.116L527.053 482.888C526.785 481.006 527.34 479.108 528.579 477.683C529.773 476.302 531.497 475.513 533.299 475.513H551.767C554.883 475.513 557.569 477.889 558.015 481.039ZM540.144 538.443H558.603C560.928 538.443 563.145 537.427 564.684 535.654C566.262 533.837 566.973 531.416 566.632 529.015L559.796 480.788C559.224 476.756 555.773 473.712 551.767 473.712H533.299C530.975 473.712 528.757 474.732 527.219 476.505C525.64 478.322 524.931 480.739 525.271 483.144L532.113 531.371C532.687 535.403 536.136 538.443 540.144 538.443Z" fill="black"/>
<path d="M566.546 579.385C572.31 579.385 577 584.174 577 590.055C577 595.937 572.31 600.726 566.546 600.726C560.782 600.726 556.092 595.937 556.092 590.055C556.092 584.174 560.782 579.385 566.546 579.385ZM566.546 602.523C573.303 602.523 578.8 596.929 578.8 590.055C578.8 583.182 573.303 577.588 566.546 577.588C559.79 577.588 554.293 583.182 554.293 590.055C554.293 596.929 559.79 602.523 566.546 602.523Z" fill="black"/>
<path d="M576.247 627.066C582.011 627.066 586.701 631.851 586.701 637.737C586.701 643.618 582.011 648.407 576.247 648.407C570.482 648.407 565.793 643.618 565.793 637.737C565.793 631.851 570.482 627.066 576.247 627.066ZM576.247 650.205C583.004 650.205 588.5 644.61 588.5 637.737C588.5 630.859 583.004 625.269 576.247 625.269C569.491 625.269 563.994 630.859 563.994 637.737C563.994 644.61 569.491 650.205 576.247 650.205Z" fill="black"/>
<path d="M584.806 677.071C590.571 677.071 595.26 681.86 595.26 687.742C595.26 693.627 590.571 698.412 584.806 698.412C579.041 698.412 574.352 693.627 574.352 687.742C574.352 681.86 579.041 677.071 584.806 677.071ZM584.806 700.209C591.562 700.209 597.059 694.619 597.059 687.742C597.059 680.868 591.562 675.274 584.806 675.274C578.05 675.274 572.553 680.868 572.553 687.742C572.553 694.619 578.05 700.209 584.806 700.209Z" fill="black"/>
<path d="M411.903 590.954H533.448C533.946 590.954 534.347 590.553 534.347 590.055C534.347 589.557 533.946 589.157 533.448 589.157H411.903C411.409 589.157 411.004 589.557 411.004 590.055C411.004 590.553 411.409 590.954 411.903 590.954Z" fill="black"/>
<path d="M419.513 638.247H432.163C432.657 638.247 433.062 637.846 433.062 637.348C433.062 636.85 432.657 636.449 432.163 636.449H419.513C419.015 636.449 418.615 636.85 418.615 637.348C418.615 637.846 419.015 638.247 419.513 638.247Z" fill="white"/>
<path d="M455.273 638.247H541.058C541.554 638.247 541.957 637.846 541.957 637.348C541.957 636.85 541.554 636.449 541.058 636.449H455.273C454.775 636.449 454.374 636.85 454.374 637.348C454.374 637.846 454.775 638.247 455.273 638.247Z" fill="black"/>
<path d="M429.402 687.09H550.948C551.445 687.09 551.848 686.689 551.848 686.191C551.848 685.693 551.445 685.293 550.948 685.293H429.402C428.908 685.293 428.503 685.693 428.503 686.191C428.503 686.689 428.908 687.09 429.402 687.09Z" fill="black"/>
<path d="M558.185 371.682C558.185 371.682 540.01 371.411 530.513 367.29C521.013 363.169 521.162 370.318 523.85 372.832C526.028 374.872 539.152 382.191 550.917 383.041L558.185 371.682Z" fill="white"/>
<path d="M556.57 372.536L550.451 382.102C538.921 381.077 526.279 373.876 524.465 372.176C523.372 371.152 522.713 369.027 523.506 367.82C524.348 366.537 526.769 366.646 530.153 368.116C538.156 371.585 551.879 372.366 556.57 372.536ZM550.917 383.939C551.222 383.939 551.508 383.786 551.674 383.526L558.943 372.164C559.119 371.888 559.132 371.54 558.977 371.253C558.823 370.966 558.524 370.787 558.198 370.779C558.018 370.779 540.091 370.468 530.869 366.464C525.032 363.93 522.806 365.606 522.004 366.832C520.685 368.84 521.591 371.953 523.235 373.491C525.749 375.843 539.152 383.089 550.852 383.939C550.874 383.939 550.896 383.939 550.917 383.939Z" fill="black"/>
<path d="M584.697 364.869L575.682 347.066L567.32 351.924C566.858 352.195 566.466 352.567 566.176 353.017L565.65 353.826C564.989 354.85 563.827 355.437 562.628 355.364C561.977 355.324 561.324 355.478 560.752 355.81L498.566 391.889C498.052 392.185 497.583 392.549 497.162 392.97L484.317 405.883L501.457 402.896C502.388 402.734 503.298 402.451 504.165 402.05L569.217 372.018C569.772 371.763 570.249 371.358 570.596 370.852L570.682 370.727C571.347 369.755 572.469 369.192 573.63 369.257L574.215 369.29C574.752 369.318 575.291 369.213 575.785 368.986L584.697 364.869Z" fill="white"/>
<path d="M573.456 368.355C572.067 368.355 570.736 369.055 569.939 370.217L569.853 370.346C569.599 370.715 569.248 371.014 568.84 371.2L503.788 401.237C502.995 401.601 502.157 401.864 501.303 402.014L486.953 404.511L497.801 393.606C498.166 393.242 498.574 392.926 499.02 392.667L561.204 356.587C561.624 356.344 562.098 356.235 562.572 356.263C564.108 356.36 565.566 355.611 566.406 354.316L566.931 353.503C567.144 353.175 567.434 352.899 567.772 352.705L575.31 348.321L583.473 364.444L575.408 368.168C575.048 368.334 574.653 368.411 574.264 368.391L573.678 368.359C573.604 368.355 573.53 368.355 573.456 368.355ZM484.317 406.782C484.37 406.782 484.419 406.778 484.471 406.77L501.61 403.783C502.622 403.609 503.606 403.301 504.541 402.868L569.595 372.836C570.297 372.512 570.9 372.002 571.338 371.362L571.425 371.233C571.911 370.524 572.731 370.111 573.581 370.156L574.167 370.188C574.847 370.225 575.537 370.091 576.162 369.804L585.073 365.687C585.296 365.586 585.466 365.396 585.546 365.165C585.627 364.938 585.609 364.683 585.499 364.464L576.485 346.657C576.373 346.439 576.175 346.273 575.937 346.204C575.701 346.131 575.444 346.163 575.23 346.289L566.868 351.147C566.287 351.487 565.786 351.96 565.421 352.527L564.896 353.337C564.408 354.089 563.554 354.523 562.684 354.466C561.85 354.413 561.029 354.612 560.301 355.033L498.113 391.108C497.534 391.448 497 391.861 496.526 392.335L483.678 405.248C483.403 405.527 483.338 405.952 483.52 406.301C483.678 406.6 483.985 406.782 484.317 406.782Z" fill="black"/>
<path d="M500.335 398.759C500.457 398.759 500.578 398.735 500.696 398.682C501.149 398.484 501.355 397.954 501.157 397.5L498.785 392.112C498.587 391.659 498.052 391.453 497.599 391.655C497.145 391.853 496.939 392.384 497.141 392.841L499.509 398.225C499.659 398.561 499.987 398.759 500.335 398.759Z" fill="black"/>
<path d="M590.141 339.196L576.604 346.495C575.911 346.871 575.646 347.734 576.011 348.434L583.955 363.671C584.326 364.383 585.205 364.654 585.91 364.274L599.418 356.987C602.127 355.53 603.197 352.182 601.807 349.515L597.565 341.378C596.175 338.711 592.851 337.735 590.141 339.196Z" fill="black"/>
<path d="M592.802 339.415C593.253 339.415 593.706 339.484 594.146 339.618C595.287 339.97 596.218 340.743 596.767 341.796L601.009 349.932C602.171 352.158 601.266 354.972 598.991 356.198L585.484 363.481C585.356 363.55 585.21 363.566 585.072 363.521C584.933 363.481 584.82 363.384 584.753 363.254L576.809 348.017C576.672 347.754 576.772 347.43 577.031 347.289L590.569 339.99C591.273 339.61 592.036 339.415 592.802 339.415ZM585.233 365.347C585.614 365.347 585.992 365.25 586.337 365.064L599.845 357.781C602.981 356.089 604.219 352.195 602.605 349.102L598.362 340.962C597.589 339.48 596.279 338.391 594.674 337.897C593.022 337.391 591.261 337.569 589.715 338.403L576.178 345.706C575.057 346.309 574.625 347.722 575.213 348.851L583.157 364.088C583.45 364.647 583.942 365.055 584.545 365.242C584.772 365.31 585.003 365.347 585.233 365.347Z" fill="black"/>
<path d="M570.371 367.52C570.515 367.52 570.66 367.484 570.796 367.411C571.233 367.176 571.398 366.634 571.164 366.193L566.68 357.817C566.445 357.38 565.901 357.214 565.462 357.449C565.024 357.684 564.859 358.23 565.094 358.667L569.578 367.043C569.74 367.346 570.051 367.52 570.371 367.52Z" fill="black"/>
<path d="M541.196 373.916C541.345 373.916 541.496 373.88 541.635 373.803L560.175 363.396C560.608 363.153 560.762 362.606 560.519 362.173C560.276 361.74 559.728 361.582 559.294 361.829L540.755 372.232C540.321 372.475 540.168 373.026 540.411 373.459C540.576 373.75 540.88 373.916 541.196 373.916Z" fill="black"/>
<path d="M504.497 395.33C504.646 395.33 504.796 395.294 504.934 395.217L512.176 391.189C512.609 390.946 512.763 390.4 512.524 389.963C512.281 389.53 511.73 389.376 511.297 389.615L504.06 393.646C503.626 393.885 503.469 394.436 503.711 394.869C503.873 395.164 504.181 395.33 504.497 395.33Z" fill="black"/>
<path d="M586.574 359C586.72 359 586.868 358.963 587.005 358.886L597.348 353.215C597.783 352.976 597.943 352.43 597.704 351.993C597.465 351.559 596.92 351.397 596.482 351.636L586.14 357.308C585.705 357.546 585.545 358.097 585.784 358.53C585.947 358.83 586.256 359 586.574 359Z" fill="white"/>
<path d="M590.964 378.798C590.964 378.798 574.881 381.077 564.034 372.702C554.807 365.573 536.124 385.975 534.517 388.566C532.242 392.234 537.249 397.994 543.029 394.731C543.029 394.731 544.559 403.823 557.035 405.349C569.511 406.871 574.833 398.702 578.18 397.48C581.528 396.261 591.117 396.193 591.117 396.193L590.964 378.798Z" fill="white"/>
<path d="M590.21 395.306C587.707 395.359 580.742 395.59 577.872 396.634C576.865 397.002 575.827 397.816 574.512 398.848C571.122 401.512 565.999 405.535 557.145 404.455C545.531 403.034 543.976 394.922 543.915 394.578C543.865 394.29 543.677 394.043 543.413 393.918C543.148 393.792 542.84 393.804 542.586 393.946C539.767 395.541 537.363 394.654 536.055 393.294C535.023 392.218 534.383 390.485 535.282 389.04C536.355 387.311 548.314 373.953 557.644 372.265C560.018 371.836 561.929 372.212 563.484 373.411C573.049 380.802 586.3 380.163 590.073 379.802L590.21 395.306ZM560.092 406.438C567.763 406.438 572.418 402.783 575.624 400.265C576.765 399.37 577.75 398.593 578.488 398.326C581.653 397.172 591.029 397.095 591.123 397.091C591.362 397.091 591.59 396.994 591.758 396.824C591.926 396.654 592.019 396.423 592.017 396.185L591.863 378.79C591.861 378.531 591.747 378.284 591.55 378.114C591.354 377.948 591.097 377.871 590.838 377.908C590.68 377.928 574.996 380.033 564.584 371.99C562.631 370.48 560.19 369.978 557.324 370.496C547.356 372.297 535.027 386.036 533.752 388.093C532.537 390.052 532.942 392.643 534.76 394.537C536.294 396.14 539.16 397.371 542.459 396.006C543.368 398.626 546.614 404.981 556.926 406.24C558.035 406.377 559.089 406.438 560.092 406.438Z" fill="black"/>
<path d="M700.238 249.469C700.238 249.469 722.266 258.735 733.898 296.466C740.318 317.293 739.141 346.989 707.483 386.461C701.151 394.359 692.257 402.212 682.216 403.345L585.998 404.28L586.426 373.479C586.426 373.479 661.044 363.784 672.259 359.566C682.192 355.83 696.578 307.193 698.075 283.33L700.238 249.469Z" fill="white"/>
<path d="M585.999 405.179C586.002 405.179 586.005 405.179 586.008 405.179L682.225 404.244C682.256 404.244 682.286 404.244 682.317 404.24C693.28 403.001 702.435 394.193 708.185 387.024C711.596 382.773 714.885 378.462 717.962 374.216C718.253 373.815 718.164 373.253 717.761 372.961C717.359 372.67 716.796 372.759 716.505 373.159C713.446 377.381 710.174 381.668 706.781 385.898C701.251 392.796 692.494 401.257 682.161 402.447L586.911 403.37L587.315 374.269C595.701 373.172 661.876 364.432 672.576 360.408C681.51 357.048 692.073 323.292 696.398 301.534C696.495 301.048 696.178 300.575 695.691 300.478C695.204 300.38 694.73 300.696 694.633 301.186C689.653 326.239 679.109 356.028 671.942 358.724C660.952 362.857 587.056 372.487 586.31 372.585C585.867 372.645 585.533 373.018 585.527 373.467L585.099 404.268C585.096 404.511 585.191 404.742 585.362 404.916C585.53 405.082 585.76 405.179 585.999 405.179Z" fill="black"/>
<path d="M504.206 127.033C503.088 129.951 500.89 137.801 504.509 143.063C507.752 147.783 514.524 147.973 518.374 143.735C520.389 141.513 521.369 137.881 522.879 132.757C523.62 130.239 524.725 128.502 525.943 126.94C526.741 125.92 527.959 125.325 529.255 125.321L540.698 125.264C540.698 125.264 540.609 120.807 537.278 119.018C534.363 117.455 526.818 118.747 526.231 117.86C519.637 107.942 508.711 115.29 504.206 127.033Z" fill="white"/>
<path d="M539.694 124.369L529.25 124.418C527.663 124.426 526.202 125.142 525.231 126.385C524.105 127.83 522.846 129.684 522.012 132.502L521.745 133.42C520.422 137.934 519.462 141.197 517.705 143.132C515.985 145.026 513.556 146.018 511.046 145.848C508.69 145.69 506.577 144.488 505.25 142.557C501.562 137.193 504.432 128.951 505.047 127.353C507.82 120.123 513.127 114.698 517.952 114.164C520.879 113.84 523.413 115.249 525.482 118.358C525.983 119.111 527.129 119.127 529.906 119.095C532.221 119.066 535.387 119.026 536.852 119.811C538.824 120.868 539.479 123.106 539.694 124.369ZM511.601 147.665C514.418 147.665 517.098 146.475 519.037 144.342C521.073 142.099 522.077 138.671 523.47 133.926L523.741 133.012C524.486 130.482 525.627 128.802 526.651 127.494C527.279 126.689 528.23 126.223 529.258 126.219L540.702 126.162C540.941 126.162 541.172 126.065 541.342 125.891C541.51 125.717 541.602 125.486 541.597 125.244C541.593 125.041 541.454 120.24 537.702 118.228C535.828 117.224 532.533 117.265 529.886 117.297C528.744 117.309 527.348 117.326 526.878 117.208C523.826 112.723 520.239 112.1 517.754 112.375C512.2 112.99 506.419 118.75 503.367 126.709C502.695 128.454 499.57 137.468 503.764 143.573C505.407 145.961 508.018 147.447 510.925 147.645C511.152 147.657 511.374 147.665 511.601 147.665Z" fill="black"/>
<path d="M691.491 697.214L698.504 730.881L680.144 736.079L669.991 703.302L691.491 697.214Z" fill="white"/>
<path d="M697.453 730.242L680.745 734.974L671.124 703.917L690.807 698.343L697.453 730.242ZM680.145 736.977C680.226 736.977 680.308 736.969 680.39 736.945L698.749 731.747C699.203 731.618 699.481 731.16 699.385 730.699L692.372 697.032C692.321 696.789 692.171 696.574 691.957 696.445C691.744 696.315 691.486 696.283 691.246 696.352L669.746 702.436C669.513 702.505 669.317 702.663 669.201 702.873C669.085 703.088 669.06 703.339 669.133 703.569L679.286 736.346C679.405 736.731 679.76 736.977 680.145 736.977Z" fill="black"/>
<path d="M704.577 759.254C704.37 762.492 700.408 765.091 697.207 765.577C686.072 767.261 659.9 766.548 652.791 767.038C643.565 767.677 626.238 766.989 625.567 761.104C624.749 753.922 632.484 743.45 650.996 737.714C660.569 734.747 670.695 720.049 675.176 719.786C679.657 719.522 687.587 731.132 687.587 731.132L700.345 726.793C700.345 726.793 705.629 742.823 704.577 759.254Z" fill="white"/>
<path d="M699.757 727.942C700.811 731.484 704.57 745.284 703.679 759.197C703.508 761.869 700.06 764.233 697.072 764.686C689.849 765.779 676.389 765.852 665.574 765.913C660.014 765.941 655.213 765.969 652.728 766.139C642.452 766.852 626.997 765.71 626.461 761.002C625.654 753.927 633.914 743.948 651.261 738.572C656.765 736.868 662.427 731.444 666.976 727.088C670.361 723.846 673.558 720.781 675.228 720.684C678.132 720.514 683.888 727.315 686.844 731.642C687.073 731.974 687.493 732.116 687.877 731.986L699.757 727.942ZM646.982 768.099C650.363 768.099 652.772 767.941 652.852 767.937C655.28 767.767 660.055 767.742 665.583 767.71C676.457 767.649 689.989 767.576 697.341 766.463C701.084 765.896 705.246 762.889 705.474 759.31C706.525 742.896 701.252 726.671 701.198 726.513C701.124 726.283 700.96 726.097 700.745 725.987C700.531 725.882 700.283 725.866 700.054 725.943L687.938 730.064C686.135 727.513 679.531 718.632 675.122 718.887C672.792 719.025 669.676 722.008 665.731 725.789C661.318 730.015 655.827 735.277 650.729 736.856C631.595 742.786 623.81 753.635 624.673 761.205C625.357 767.2 638.926 768.099 646.982 768.099Z" fill="black"/>
<path d="M642.175 759.343C644.613 759.343 647.288 759.205 650.12 759.055C654.319 758.837 658.661 758.61 662.934 758.804C672.633 759.25 680.93 758.865 686.181 758.464C695.915 757.728 696.302 757.112 696.447 756.877C696.619 756.606 696.631 756.25 696.477 755.967C696.24 755.53 695.693 755.368 695.258 755.602C695.255 755.602 695.252 755.606 695.248 755.606C693.695 756.019 680.172 757.792 663.016 757.007C658.655 756.809 654.268 757.039 650.026 757.258C643.599 757.594 637.529 757.91 634.021 756.416C633.563 756.222 633.035 756.432 632.84 756.89C632.646 757.347 632.858 757.877 633.315 758.072C635.616 759.051 638.648 759.343 642.175 759.343Z" fill="black"/>
<path d="M665.937 747.798C666.163 747.798 666.391 747.713 666.565 747.539C666.92 747.195 666.927 746.624 666.58 746.268L659.86 739.39C659.513 739.034 658.943 739.03 658.588 739.374C658.233 739.722 658.227 740.293 658.573 740.649L665.293 747.527C665.469 747.705 665.703 747.798 665.937 747.798Z" fill="black"/>
<path d="M791.072 695.615L792.006 719.093L775.617 723.052L772.697 695.781L791.072 695.615Z" fill="white"/>
<path d="M791.078 718.393L776.403 721.939L773.697 696.672L790.208 696.522L791.078 718.393ZM775.617 723.955C775.688 723.955 775.759 723.947 775.829 723.927L792.218 719.968C792.635 719.871 792.922 719.486 792.905 719.061L791.97 695.579C791.951 695.097 791.554 694.712 791.072 694.712C791.069 694.712 791.066 694.712 791.063 694.712L772.689 694.882C772.435 694.882 772.194 694.992 772.025 695.182C771.856 695.372 771.776 695.623 771.803 695.874L774.723 723.149C774.75 723.409 774.888 723.639 775.099 723.789C775.252 723.898 775.433 723.955 775.617 723.955Z" fill="black"/>
<path d="M773.117 765.747C779.684 766.674 790.404 767.066 803.099 765.734C808.791 765.139 811.01 757.226 810.011 753.149C807.227 741.803 802.388 723.51 794.154 713.535L791.131 719.624L788.277 713.685C787.89 712.989 787.195 712.515 786.405 712.414L780.248 712.475C778.955 712.309 777.753 713.167 777.485 714.446L776.5 719.142L771.246 713.082L767.146 757.837C766.642 761.67 769.299 765.208 773.117 765.747Z" fill="white"/>
<path d="M794.328 715.207C802.398 725.894 807.093 745.029 809.137 753.364C809.674 755.554 809.203 759.363 807.272 762.111C806.121 763.747 804.686 764.666 803.005 764.84C792.278 765.965 781.153 765.973 773.242 764.856C769.933 764.391 767.598 761.294 768.038 757.954L771.95 715.264L775.821 719.729C776.044 719.988 776.396 720.097 776.726 720.012C777.057 719.923 777.311 719.66 777.381 719.324L778.365 714.633C778.536 713.819 779.306 713.264 780.134 713.365C780.175 713.374 780.216 713.374 780.256 713.374L786.345 713.317C786.827 713.394 787.252 713.693 787.49 714.122L790.321 720.012C790.469 720.324 790.782 720.522 791.125 720.522C791.431 720.506 791.784 720.332 791.937 720.024L794.328 715.207ZM787.132 767.499C791.64 767.499 797.03 767.277 803.193 766.629C805.382 766.398 807.302 765.196 808.743 763.144C811.004 759.93 811.532 755.574 810.884 752.935C807.545 739.325 802.704 722.478 794.848 712.961C794.654 712.726 794.352 712.604 794.052 712.641C793.748 712.673 793.484 712.859 793.349 713.135L791.144 717.575L789.088 713.297C788.539 712.305 787.589 711.657 786.518 711.524C786.479 711.52 786.444 711.516 786.396 711.516L780.295 711.576C778.569 711.39 776.962 712.56 776.605 714.26L775.992 717.183L771.926 712.491C771.69 712.22 771.314 712.115 770.971 712.224C770.628 712.333 770.383 712.641 770.351 712.997L766.25 757.756C765.687 762.035 768.709 766.034 772.991 766.637C775.334 766.969 780.185 767.499 787.132 767.499Z" fill="black"/>
<path d="M791.373 760.152C795.575 760.152 800.121 759.78 804.654 758.744C805.139 758.63 805.442 758.148 805.331 757.667C805.22 757.181 804.736 756.877 804.254 756.987C788.8 760.521 772.643 755.979 772.482 755.934C772.008 755.797 771.506 756.072 771.369 756.55C771.233 757.027 771.508 757.525 771.986 757.663C772.47 757.8 780.835 760.152 791.373 760.152Z" fill="black"/>
<path d="M795.136 742.774C795.62 742.774 796.019 742.39 796.035 741.904C796.051 741.406 795.662 740.989 795.166 740.973L780.393 740.483C779.905 740.479 779.481 740.856 779.464 741.353C779.448 741.851 779.837 742.268 780.333 742.284L795.106 742.77C795.116 742.77 795.126 742.774 795.136 742.774Z" fill="black"/>
<path d="M618.006 414.376C611.79 450.764 600.488 540.188 624.889 607.081C645.888 664.648 660.878 693.316 666.639 703.727C668.215 706.569 671.357 708.16 674.577 707.743L689.544 705.816C693.981 705.245 697.069 701.112 696.363 696.684C690.902 662.434 669.21 495.717 674.988 480.31L767.949 698.837C768.953 701.157 771.244 702.647 773.765 702.618L789.468 702.444C792.966 702.404 795.755 699.493 795.663 695.988C791.026 519.11 739.244 490.649 724.071 406.082C724.036 405.884 719.103 411.826 718.918 411.935C703.727 420.736 696.125 420.052 672.819 421.323C647.609 422.703 624.192 413.19 618.672 413.445C618.251 413.465 618.078 413.955 618.006 414.376Z" fill="black"/>
<path d="M645.779 244.943L641.482 222.91C641.176 221.428 639.954 220.311 638.453 220.137L629.814 219.153C627.972 218.943 626.496 217.53 626.204 215.692L624.249 203.402C624.246 203.386 624.235 203.37 624.218 203.358L620.113 201.135C619.297 200.694 618.982 199.678 619.405 198.848L623.729 190.388C624.57 188.741 625.727 179.442 627.57 179.535C627.57 179.535 658.66 168.707 667.804 181.612C670.227 185.033 670.495 189.542 668.855 193.404L666.763 198.326C664.588 203.443 664.103 209.195 665.766 214.498C666.358 216.392 667.19 218.218 668.252 219.934L679.936 238.15C671.448 242.413 662.111 244.7 652.619 244.842L645.779 244.943Z" fill="white"/>
<path d="M678.634 237.79C670.549 241.684 661.572 243.81 652.606 243.943L646.517 244.032L642.365 222.736C641.976 220.857 640.446 219.461 638.555 219.246L629.915 218.259C628.48 218.097 627.319 216.983 627.092 215.55L625.138 203.261C625.093 202.985 624.891 202.698 624.644 202.568L620.541 200.346C620.157 200.136 620.007 199.65 620.206 199.257L624.53 190.797C624.847 190.178 625.131 188.951 625.57 187.004C626.01 185.053 626.915 181.029 627.643 180.43C627.719 180.426 627.793 180.41 627.866 180.385C628.17 180.276 658.422 169.925 667.07 182.134C669.228 185.178 669.595 189.364 668.027 193.052L665.935 197.974C663.6 203.467 663.235 209.43 664.907 214.769C665.526 216.749 666.395 218.643 667.487 220.408L678.634 237.79ZM645.778 245.842C645.782 245.842 645.787 245.842 645.791 245.842L652.633 245.74C662.201 245.599 671.782 243.251 680.339 238.956C680.566 238.843 680.735 238.636 680.802 238.389C680.87 238.146 680.83 237.883 680.692 237.669L669.009 219.449C668.003 217.825 667.198 216.065 666.623 214.231C665.08 209.3 665.423 203.779 667.591 198.678L669.683 193.756C671.493 189.498 671.054 184.644 668.538 181.094C659.324 168.088 629.946 177.77 627.407 178.641C625.702 178.778 624.902 181.778 623.815 186.607C623.492 188.044 623.157 189.53 622.927 189.979L618.604 198.44C617.964 199.694 618.449 201.257 619.685 201.925L623.425 203.953L625.315 215.834C625.669 218.06 627.477 219.793 629.711 220.048L638.352 221.031C639.469 221.161 640.373 221.987 640.601 223.092L644.895 245.117C644.978 245.538 645.348 245.842 645.778 245.842Z" fill="black"/>
<path d="M651.815 193.242C653.411 189.275 655.905 187.785 655.438 185.535C655.156 184.175 653.979 183.32 653.31 182.835C649.984 180.422 645.61 181.896 636.827 183.551C625.923 185.608 624.679 185.931 622.621 185.118C617.391 183.049 614.418 176.613 614.188 171.318C614.123 169.833 613.993 161.947 620.685 157.879C625.518 154.944 631.986 155.163 637.212 158.421C637.67 156.887 638.62 154.733 640.697 153.673C645.622 151.155 652.969 156.802 655.541 158.777C657.918 160.603 662.155 164.416 665.191 171.124C666.16 170.581 669.8 168.695 673.768 169.962C679.668 171.848 681.117 179.058 681.244 179.742C682.72 187.708 676.172 194.663 671.227 199.909C668.503 202.804 667.071 203.909 665.47 204.977C664.524 205.609 663.303 205.653 662.306 205.107C662.289 205.095 662.27 205.087 662.252 205.074C660.944 204.354 660.507 202.678 661.294 201.407L661.545 201.002C662.488 199.476 663.132 197.776 663.329 195.991C663.486 194.57 663.374 193.076 662.461 192.311C660.986 191.072 658.477 191.89 658.118 192.007C656.279 192.607 655.125 193.967 654.416 195.262C653.655 196.655 651.107 194.999 651.815 193.242Z" fill="black"/>
<path d="M742.053 154.653C742.379 157.551 740.256 160.21 737.32 160.587C735.891 160.769 734.487 160.389 733.37 159.51C732.278 158.652 731.591 157.417 731.435 156.037C731.109 153.143 733.232 150.479 736.168 150.107C737.598 149.92 739.002 150.305 740.118 151.179C741.211 152.038 741.897 153.272 742.053 154.653ZM736.618 162.429C736.927 162.429 737.237 162.413 737.549 162.372C741.454 161.87 744.276 158.32 743.841 154.454C743.631 152.588 742.703 150.924 741.229 149.767C739.731 148.589 737.851 148.075 735.939 148.321C732.035 148.819 729.212 152.374 729.647 156.239C729.857 158.101 730.785 159.769 732.259 160.927C733.513 161.911 735.034 162.429 736.618 162.429Z" fill="black"/>
<path d="M763.769 175.669C763.924 175.669 764.082 175.629 764.226 175.544L770.224 171.994C770.652 171.739 770.793 171.188 770.54 170.759C770.287 170.334 769.735 170.193 769.308 170.444L763.31 173.994C762.882 174.249 762.74 174.799 762.994 175.228C763.162 175.512 763.461 175.669 763.769 175.669Z" fill="black"/>
<path d="M749.796 183.94C749.951 183.94 750.109 183.9 750.253 183.815L756.251 180.265C756.679 180.009 756.82 179.459 756.567 179.03C756.314 178.605 755.761 178.463 755.335 178.714L749.336 182.268C748.909 182.519 748.767 183.07 749.021 183.499C749.188 183.782 749.488 183.94 749.796 183.94Z" fill="black"/>
<path d="M765.69 188.02C765.846 188.02 766.003 187.979 766.147 187.894C766.575 187.639 766.716 187.089 766.463 186.66L762.914 180.661C762.66 180.232 762.111 180.09 761.681 180.345C761.254 180.596 761.112 181.15 761.365 181.576L764.915 187.579C765.083 187.862 765.383 188.02 765.69 188.02Z" fill="black"/>
<path d="M757.422 174.039C757.577 174.039 757.735 173.998 757.879 173.913C758.306 173.662 758.448 173.112 758.195 172.682L754.646 166.683C754.393 166.254 753.842 166.113 753.414 166.364C752.986 166.619 752.844 167.169 753.097 167.598L756.646 173.597C756.814 173.881 757.114 174.039 757.422 174.039Z" fill="black"/>
<path d="M134.319 809.493H448.865C467.745 809.493 481.872 792.156 478.067 773.652L430.349 541.572C426.334 522.053 409.162 508.047 389.246 508.047H119.442L134.319 809.493Z" fill="white"/>
<path d="M389.246 508.946C408.644 508.946 425.561 522.745 429.467 541.751L477.189 773.835C478.946 782.392 476.792 791.18 471.271 797.948C465.757 804.713 457.588 808.595 448.865 808.595H135.177L120.386 508.946H389.246ZM134.319 810.392H448.865C458.131 810.392 466.81 806.271 472.667 799.086C478.529 791.897 480.82 782.558 478.95 773.47L431.228 541.39C427.147 521.551 409.494 507.148 389.246 507.148H119.443C119.196 507.148 118.961 507.249 118.791 507.428C118.621 507.606 118.532 507.845 118.544 508.091L133.42 809.538C133.445 810.016 133.841 810.392 134.319 810.392Z" fill="black"/>
<path d="M94.0456 809.493H155.089C173.969 809.493 188.097 792.156 184.292 773.652L131.733 518.029C130.534 512.22 125.422 508.047 119.491 508.047H103.793C97.2841 508.047 91.8679 513.046 91.3376 519.535L69.8386 783.218C68.6849 797.37 79.8533 809.493 94.0456 809.493Z" fill="white"/>
<path d="M119.491 508.946C124.968 508.946 129.745 512.844 130.85 518.211L183.409 773.835C185.17 782.392 183.013 791.18 177.495 797.948C171.982 804.713 163.813 808.595 155.09 808.595H94.0457C87.4393 808.595 81.3309 805.915 76.8538 801.057C72.4334 796.265 70.203 789.788 70.7333 783.291L92.2362 519.608C92.722 513.629 97.7982 508.946 103.793 508.946H119.491ZM94.0457 810.392H155.09C164.355 810.392 173.03 806.271 178.888 799.086C184.753 791.897 187.04 782.558 185.174 773.47L132.611 517.851C131.336 511.65 125.818 507.148 119.491 507.148H103.793C96.8712 507.148 91.0056 512.556 90.4429 519.458L68.94 783.145C68.3692 790.14 70.7697 797.115 75.5302 802.276C80.2825 807.433 87.0345 810.392 94.0457 810.392Z" fill="black"/>
<path d="M113.501 801.32H155.09C161.623 801.32 167.736 798.414 171.865 793.346C175.994 788.282 177.609 781.704 176.289 775.3L159.036 691.389C158.935 690.899 158.462 690.587 157.976 690.689C157.486 690.786 157.174 691.263 157.276 691.749L174.528 775.66C175.734 781.534 174.257 787.565 170.472 792.212C166.683 796.855 161.077 799.519 155.09 799.519H113.501C113.003 799.519 112.602 799.924 112.602 800.422C112.602 800.916 113.003 801.32 113.501 801.32Z" fill="black"/>
<path d="M94.0456 801.32C94.5435 801.32 94.9443 800.916 94.9443 800.422C94.9443 799.924 94.5435 799.519 94.0456 799.519C89.9976 799.519 86.2613 797.88 83.5168 794.904C80.7723 791.925 79.4445 788.063 79.7724 784.027L84.6745 723.935C84.715 723.441 84.3467 723.008 83.8488 722.967C83.363 722.923 82.9218 723.295 82.8813 723.789L77.9792 783.882C77.6108 788.424 79.1045 792.771 82.1931 796.123C85.2818 799.475 89.4916 801.32 94.0456 801.32Z" fill="black"/>
<path d="M97.4138 557.534C97.8753 557.534 98.272 557.177 98.3084 556.708L99.3285 544.183C99.369 543.69 99.0007 543.256 98.5068 543.216C98.0089 543.171 97.5757 543.544 97.5393 544.038L96.5151 556.562C96.4747 557.056 96.843 557.489 97.3409 557.53C97.3652 557.534 97.3896 557.534 97.4138 557.534Z" fill="black"/>
<path d="M137.263 590.857C137.323 590.857 137.384 590.853 137.445 590.841C137.931 590.739 138.242 590.266 138.145 589.776L123.73 519.677C123.317 517.673 121.536 516.22 119.492 516.22H103.794C101.559 516.22 99.6648 517.969 99.4827 520.199L98.8107 528.4C98.7703 528.894 99.1427 529.331 99.6365 529.368C100.126 529.412 100.563 529.04 100.604 528.546L101.276 520.345C101.381 519.041 102.486 518.021 103.794 518.021H119.492C120.686 518.021 121.726 518.871 121.969 520.041L136.38 590.14C136.469 590.565 136.846 590.857 137.263 590.857Z" fill="black"/>
<path d="M177.176 630.774H423.456C423.954 630.774 424.354 630.369 424.354 629.875C424.354 629.377 423.954 628.973 423.456 628.973H177.176C170.262 628.973 164.319 624.273 162.724 617.541L141.015 525.854C140.901 525.372 140.42 525.073 139.934 525.186C139.452 525.299 139.153 525.785 139.266 526.271L160.975 617.958C162.761 625.503 169.424 630.774 177.176 630.774Z" fill="black"/>
<path d="M272.231 629.876L279.129 657.714C280.242 662.425 284.448 665.749 289.285 665.749H338.063C343.374 665.749 347.22 660.685 345.799 655.564L338.654 629.876H272.231Z" fill="white"/>
<path d="M337.97 630.774L344.933 655.807C345.536 657.973 345.099 660.244 343.739 662.037C342.379 663.826 340.31 664.85 338.063 664.85H289.285C284.844 664.85 281.027 661.83 280.003 657.507L273.381 630.774H337.97ZM289.285 666.652H338.063C340.877 666.652 343.468 665.364 345.172 663.126C346.876 660.883 347.418 658.037 346.665 655.325L339.521 629.633C339.411 629.244 339.059 628.973 338.655 628.973H272.231C271.952 628.973 271.692 629.102 271.522 629.321C271.352 629.535 271.292 629.823 271.357 630.09L278.254 657.932C279.469 663.061 284.007 666.652 289.285 666.652Z" fill="black"/>
<path d="M199.65 787.076H461.284C461.782 787.076 462.187 786.675 462.187 786.177C462.187 785.679 461.782 785.278 461.284 785.278H199.65C199.152 785.278 198.751 785.679 198.751 786.177C198.751 786.675 199.152 787.076 199.65 787.076Z" fill="black"/>
<path d="M327.097 497.514H347.52C353.037 497.514 357.51 501.991 357.51 507.509H317.107C317.107 501.991 321.58 497.514 327.097 497.514Z" fill="white"/>
<path d="M356.567 506.61H318.05C318.503 502.015 322.389 498.413 327.097 498.413H347.519C352.227 498.413 356.113 502.015 356.567 506.61ZM317.107 508.407H357.51C358.008 508.407 358.408 508.006 358.408 507.509C358.408 501.501 353.523 496.615 347.519 496.615H327.097C321.094 496.615 316.208 501.501 316.208 507.509C316.208 508.006 316.609 508.407 317.107 508.407Z" fill="black"/>
<path d="M163.42 497.514H183.843C189.36 497.514 193.833 501.991 193.833 507.509H153.43C153.43 501.991 157.903 497.514 163.42 497.514Z" fill="black"/>
<path d="M192.89 506.61H154.373C154.822 502.015 158.709 498.413 163.42 498.413H183.843C188.55 498.413 192.436 502.015 192.89 506.61ZM153.43 508.407H193.833C194.327 508.407 194.732 508.006 194.732 507.509C194.732 501.501 189.846 496.615 183.843 496.615H163.42C157.413 496.615 152.527 501.501 152.527 507.509C152.527 508.006 152.932 508.407 153.43 508.407Z" fill="black"/>
<path d="M168.752 496.976L165.461 477.42C163.125 463.552 172.472 452.306 186.336 452.306H308.8C322.665 452.306 335.797 463.552 338.128 477.42L341.419 496.976H332.048L329.486 481.755C327.668 470.959 317.451 462.212 306.659 462.212H191.809C181.021 462.212 173.743 470.959 175.56 481.755L178.123 496.976H168.752Z" fill="white"/>
<path d="M177.058 496.077H169.509L166.347 477.27C165.25 470.757 166.768 464.664 170.618 460.115C174.386 455.658 179.969 453.205 186.336 453.205H308.8C322.223 453.205 334.983 464.134 337.242 477.569L340.354 496.077H332.809L330.372 481.605C328.49 470.413 317.852 461.309 306.659 461.309H191.809C186.377 461.309 181.596 463.422 178.353 467.255C175.05 471.162 173.743 476.363 174.674 481.905L177.058 496.077ZM168.752 497.874H178.123C178.386 497.874 178.637 497.757 178.811 497.559C178.981 497.356 179.054 497.089 179.009 496.826L176.447 481.605C175.605 476.598 176.771 471.91 179.73 468.417C182.624 464.992 186.911 463.11 191.809 463.11H306.659C317.014 463.11 326.854 471.542 328.599 481.905L331.157 497.125C331.234 497.559 331.607 497.874 332.048 497.874H341.419C341.682 497.874 341.933 497.757 342.107 497.559C342.277 497.356 342.35 497.089 342.306 496.826L339.015 477.27C336.614 463.009 323.061 451.407 308.8 451.407H186.336C179.43 451.407 173.358 454.087 169.245 458.953C165.048 463.916 163.388 470.526 164.57 477.569L167.861 497.125C167.934 497.559 168.31 497.874 168.752 497.874Z" fill="black"/>
<path d="M192.417 444.21H299.992C304.328 444.21 308.436 447.724 309.165 452.063L310.748 461.463C311.476 465.798 308.554 469.316 304.218 469.316H196.643C192.307 469.316 188.203 465.798 187.47 461.463L185.891 452.063C185.158 447.724 188.081 444.21 192.417 444.21Z" fill="white"/>
<path d="M299.992 445.108C303.902 445.108 307.618 448.294 308.278 452.213L309.861 461.612C310.173 463.466 309.743 465.191 308.663 466.474C307.602 467.729 306.023 468.417 304.218 468.417H196.642C192.732 468.417 189.016 465.231 188.36 461.313L186.777 451.913C186.466 450.059 186.891 448.331 187.976 447.047C189.032 445.797 190.611 445.108 192.416 445.108H299.992ZM196.642 470.214H304.218C306.562 470.214 308.626 469.299 310.035 467.636C311.468 465.943 312.035 463.697 311.634 461.313L310.051 451.913C309.254 447.169 304.74 443.307 299.992 443.307H192.416C190.072 443.307 188.008 444.226 186.599 445.886C185.17 447.582 184.6 449.824 185 452.209L186.583 461.612C187.38 466.356 191.894 470.214 196.642 470.214Z" fill="black"/>
<path d="M258.322 470.214H304.218C306.562 470.214 308.626 469.299 310.035 467.636C311.468 465.943 312.035 463.697 311.634 461.313L310.051 451.913C309.254 447.169 304.74 443.307 299.992 443.307H264.114C263.616 443.307 263.212 443.712 263.212 444.21C263.212 444.704 263.616 445.108 264.114 445.108H299.992C303.902 445.108 307.618 448.294 308.278 452.213L309.861 461.612C310.173 463.466 309.743 465.191 308.663 466.474C307.602 467.729 306.023 468.417 304.218 468.417H258.322C257.824 468.417 257.423 468.818 257.423 469.315C257.423 469.813 257.824 470.214 258.322 470.214Z" fill="black"/>
<path d="M155.664 787.076C155.976 787.076 156.28 786.914 156.445 786.622C156.692 786.189 156.543 785.643 156.11 785.396L114.399 761.618V526.061C114.399 525.567 113.994 525.162 113.5 525.162C113.002 525.162 112.602 525.567 112.602 526.061V762.14C112.602 762.464 112.772 762.763 113.055 762.921L155.219 786.958C155.361 787.039 155.515 787.076 155.664 787.076Z" fill="black"/>
<path d="M157.308 502.157C157.308 502.157 138.538 509.152 131.178 503.262C123.819 497.368 142.586 487.431 147.002 488.167C151.418 488.904 157.308 502.157 157.308 502.157Z" fill="black"/>
<path d="M251.623 652.261L233.961 683.188L224.392 669.934L239.847 639.744L251.623 652.261Z" fill="white"/>
<path d="M250.513 652.395L233.872 681.528L225.444 669.854L240.07 641.291L250.513 652.395ZM233.961 684.086C233.977 684.086 233.994 684.086 234.01 684.086C234.313 684.07 234.589 683.9 234.742 683.633L252.404 652.706C252.602 652.366 252.55 651.933 252.278 651.646L240.503 639.129C240.304 638.915 240.017 638.809 239.721 638.854C239.434 638.894 239.179 639.073 239.049 639.336L223.59 669.522C223.436 669.825 223.465 670.185 223.663 670.461L233.232 683.714C233.398 683.949 233.674 684.086 233.961 684.086Z" fill="black"/>
<path d="M240.077 678.472C235.418 688.078 223.63 711.378 212.268 722.546C209.499 725.267 204.811 724.004 203.82 720.247C200.265 706.796 197.897 678.767 211.146 656.681C211.146 656.681 217.445 655.945 229.221 658.151L226.602 669.198L228.047 668.161C230.225 666.607 233.18 666.741 235.208 668.481L238.604 671.392C240.644 673.141 241.251 676.047 240.077 678.472Z" fill="black"/>
<path d="M210.409 719.429C210.515 719.429 210.62 719.413 210.725 719.373C211.191 719.195 211.425 718.676 211.251 718.211C201.192 691.62 214.773 660.3 214.911 659.989C215.113 659.535 214.907 659.001 214.453 658.802C213.996 658.6 213.466 658.807 213.267 659.26C213.126 659.58 199.253 691.575 209.567 718.851C209.701 719.207 210.045 719.429 210.409 719.429Z" fill="white"/>
<path d="M233.224 692.765C233.52 692.765 233.807 692.62 233.977 692.352C234.248 691.935 234.131 691.381 233.714 691.11L224.881 685.378C224.464 685.106 223.91 685.224 223.638 685.641C223.367 686.058 223.485 686.616 223.902 686.888L232.734 692.62C232.884 692.717 233.054 692.765 233.224 692.765Z" fill="white"/>
<path d="M228.808 700.61C229.079 700.61 229.346 700.489 229.52 700.262C229.824 699.865 229.751 699.303 229.354 698.999L221.258 692.781C220.866 692.478 220.303 692.555 219.999 692.947C219.696 693.34 219.773 693.907 220.165 694.21L228.261 700.424C228.423 700.55 228.618 700.61 228.808 700.61Z" fill="white"/>
<path d="M307.558 652.998C307.558 653.734 323.75 689.078 323.75 689.078L305.351 690.551L292.839 660.361L307.558 652.998Z" fill="white"/>
<path d="M322.397 688.284L305.93 689.6L293.992 660.79L307.088 654.24C308.079 656.693 311.391 664.243 322.397 688.284ZM305.351 691.45C305.375 691.45 305.4 691.45 305.424 691.446L323.822 689.976C324.113 689.952 324.377 689.786 324.526 689.531C324.676 689.28 324.692 688.968 324.567 688.701C318.317 675.059 308.905 654.342 308.444 652.844C308.399 652.593 308.253 652.37 308.031 652.233C307.768 652.067 307.436 652.054 307.156 652.192L292.438 659.555C292.013 659.766 291.827 660.268 292.009 660.705L304.521 690.895C304.659 691.231 304.991 691.45 305.351 691.45Z" fill="black"/>
<path d="M306.825 681.714C306.825 681.714 310.504 672.877 320.07 677.298C320.07 677.298 337.634 702.679 344.163 723.635C346.009 729.562 339.925 734.901 334.27 732.347C321.033 726.368 300.291 713.819 288.422 690.551C288.422 690.551 292.102 680.977 297.992 676.561L306.825 681.714Z" fill="black"/>
<path d="M338.764 726.857C339.517 726.857 339.962 726.801 340.075 726.785C340.565 726.712 340.905 726.254 340.832 725.76C340.759 725.271 340.306 724.931 339.812 725.004C339.61 725.032 320.062 727.291 293.568 690.757C293.276 690.357 292.714 690.268 292.313 690.559C291.908 690.851 291.819 691.413 292.11 691.814C315.735 724.388 333.833 726.857 338.764 726.857Z" fill="white"/>
<path d="M323.754 706.913C323.907 706.913 324.061 706.873 324.203 706.792L333.036 701.634C333.465 701.383 333.61 700.833 333.359 700.404C333.109 699.975 332.558 699.829 332.129 700.08L323.296 705.237C322.867 705.488 322.725 706.039 322.972 706.468C323.142 706.751 323.442 706.913 323.754 706.913Z" fill="white"/>
<path d="M319.337 700.286C319.479 700.286 319.624 700.25 319.762 700.177L329.327 695.024C329.765 694.789 329.931 694.243 329.696 693.805C329.457 693.368 328.915 693.202 328.477 693.441L318.908 698.594C318.471 698.829 318.309 699.376 318.544 699.813C318.705 700.116 319.017 700.286 319.337 700.286Z" fill="white"/>
<path d="M213.353 474.809C213.353 474.809 261.321 483.378 295.891 519.64C304.619 528.797 307.699 541.973 303.959 554.052C296.28 578.838 279.558 624.107 251.622 658.151L230.281 639.744C230.281 639.744 235.43 597.038 249.416 570.532C263.398 544.021 181.705 486.588 181.705 486.588L213.353 474.809Z" fill="white"/>
<path d="M213.43 475.74C217.121 476.46 262.52 485.941 295.24 520.264C303.732 529.173 306.744 542.018 303.097 553.785C295.673 577.749 279.137 622.852 251.513 656.868L231.233 639.38C231.852 634.632 237.252 595.516 250.21 570.949C263.548 545.665 194.716 494.818 183.608 486.839L213.43 475.74ZM251.622 659.049C251.651 659.049 251.675 659.049 251.699 659.049C251.942 659.029 252.165 658.912 252.319 658.722C280.489 624.39 297.304 578.575 304.817 554.32C308.655 541.929 305.485 528.4 296.543 519.021C262.167 482.961 213.992 474.007 213.51 473.922C213.353 473.894 213.191 473.91 213.037 473.967L181.39 485.746C181.078 485.864 180.855 486.143 180.811 486.475C180.77 486.807 180.916 487.135 181.187 487.325C181.997 487.896 262.078 544.6 248.619 570.111C234.718 596.459 229.439 639.206 229.387 639.635C229.35 639.935 229.468 640.23 229.694 640.425L251.035 658.835C251.201 658.977 251.408 659.049 251.622 659.049Z" fill="black"/>
<path d="M313.448 659.624L288.423 666.987C288.423 666.987 242.794 570.532 229.545 556.538C216.296 542.548 190.538 519.725 163.303 511.625C136.072 503.525 136.072 482.909 136.072 482.909L182.442 469.656C182.442 469.656 247.21 497.635 268.551 529.295C289.896 560.958 313.448 659.624 313.448 659.624Z" fill="white"/>
<path d="M312.371 659.005L288.909 665.907C284.444 656.495 242.948 569.386 230.196 555.923C222.359 547.644 194.4 519.932 163.562 510.763C140.019 503.76 137.319 487.115 137.011 483.577L182.377 470.607C187.13 472.704 247.583 499.797 267.806 529.797C287.779 559.432 310.027 649.379 312.371 659.005ZM288.423 667.886C288.508 667.886 288.593 667.874 288.678 667.85L313.703 660.486C314.16 660.353 314.435 659.883 314.322 659.418C314.087 658.426 290.487 560.226 269.296 528.793C248.052 497.279 183.446 469.109 182.798 468.83C182.608 468.745 182.394 468.733 182.195 468.789L135.825 482.043C135.441 482.152 135.174 482.504 135.174 482.909C135.174 483.119 135.494 504.29 163.048 512.488C193.457 521.531 221.133 548.964 228.893 557.157C241.891 570.884 287.156 666.409 287.609 667.372C287.763 667.692 288.083 667.886 288.423 667.886Z" fill="black"/>
<path d="M98.5389 407.066C111.051 382.033 131.656 378.349 131.656 378.349L166.987 375.406C178.034 374.657 189.777 381.482 194.137 391.667L226.602 467.446C226.602 467.446 219.975 485.115 190.538 488.062C161.097 491.009 140.857 489.167 131.287 500.947C124.98 508.715 125.183 456.917 128.81 415.943L98.5389 407.066Z" fill="white"/>
<path d="M225.622 467.445C224.541 469.797 216.765 484.532 190.449 487.167C183.847 487.827 177.576 488.256 172.047 488.633C152.43 489.973 138.258 490.94 130.591 500.38C130.263 500.785 130.085 500.829 130.085 500.829C130.004 500.789 127.288 499.408 127.179 472.137C127.11 455.629 128.057 434.653 129.705 416.024C129.745 415.595 129.474 415.202 129.061 415.08L99.8304 406.507C112.043 383.02 131.615 379.272 131.814 379.235L167.06 376.301C177.868 375.568 189.158 382.328 193.311 392.019L225.622 467.445ZM130.101 502.631C130.636 502.631 131.291 502.372 131.988 501.513C139.161 492.685 153.005 491.737 172.168 490.43C177.714 490.049 184 489.62 190.627 488.956C220.283 485.989 227.164 468.502 227.444 467.761C227.524 467.543 227.516 467.304 227.427 467.089L194.966 391.311C190.526 380.952 178.479 373.73 166.926 374.507L131.583 377.454C131.287 377.503 110.303 381.514 97.7336 406.665C97.6122 406.903 97.6081 407.183 97.7134 407.426C97.8186 407.669 98.0291 407.855 98.2841 407.932L127.851 416.598C125.313 445.74 123.22 499.975 129.446 502.501C129.632 502.574 129.854 502.631 130.101 502.631Z" fill="black"/>
<path d="M193.019 472.323L176.827 464.96L164.315 470.113C164.315 470.113 96.4986 463.316 126.515 415.271C126.644 415.064 103.619 408.555 103.619 408.555C103.619 408.555 76.2666 473.797 162.841 475.27C162.841 475.27 167.258 476.74 173.147 473.797C179.033 470.85 189.339 476.74 193.019 472.323Z" fill="white"/>
<path d="M177.511 472.028C175.803 472.028 174.18 472.275 172.743 472.991C167.298 475.715 163.165 474.428 163.125 474.416C163.04 474.388 162.947 474.371 162.858 474.371C134.598 473.89 115.646 466.559 106.522 452.585C95.4462 435.624 102.587 413.902 104.166 409.644C111.654 411.765 122.001 414.732 125.171 415.736C117.577 428.289 115.965 439.202 120.378 448.189C129.777 467.348 162.821 470.87 164.226 471.008C164.376 471.024 164.521 471.003 164.659 470.947L176.811 465.939L191.331 472.546C189.465 473.529 186.453 473.084 183.3 472.611C181.361 472.323 179.385 472.028 177.511 472.028ZM165.792 476.541C167.747 476.541 170.46 476.144 173.548 474.602C176.046 473.351 179.6 473.882 183.037 474.392C187.352 475.035 191.424 475.642 193.711 472.898C193.89 472.683 193.958 472.396 193.894 472.125C193.833 471.849 193.647 471.619 193.392 471.505L177.2 464.142C176.973 464.037 176.714 464.033 176.483 464.13L164.185 469.194C161.275 468.854 130.563 464.871 121.989 447.391C117.763 438.777 119.54 428.131 127.276 415.748C127.425 415.505 127.454 415.206 127.353 414.943C127.138 414.384 127.085 414.255 103.866 407.693C103.425 407.567 102.967 407.79 102.789 408.207C102.684 408.466 92.228 433.98 105.016 453.569C114.472 468.052 133.882 475.655 162.704 476.165C163.088 476.274 164.185 476.541 165.792 476.541Z" fill="black"/>
<path d="M254.735 478.169H190.898L238.223 405.349C239.705 403.074 242.279 401.694 245.048 401.694H296.858C300.15 401.694 302.149 405.22 300.392 407.924L254.735 478.169Z" fill="black"/>
<path d="M267.462 427.229C265.386 430.419 260.925 433.009 257.496 433.009C254.068 433.009 252.971 430.419 255.047 427.229C257.12 424.039 261.581 421.448 265.009 421.448C268.438 421.448 269.535 424.039 267.462 427.229Z" fill="white"/>
<path d="M265.009 422.351C266.203 422.351 267.053 422.711 267.41 423.363C267.839 424.16 267.584 425.391 266.709 426.739C264.815 429.649 260.597 432.107 257.496 432.107C256.306 432.107 255.456 431.75 255.1 431.095C254.667 430.301 254.922 429.071 255.8 427.718C257.69 424.808 261.908 422.351 265.009 422.351ZM257.496 433.908C261.253 433.908 265.961 431.188 268.215 427.718C269.462 425.8 269.745 423.897 268.988 422.505C268.304 421.246 266.891 420.549 265.009 420.549C261.257 420.549 256.545 423.27 254.29 426.739C253.043 428.658 252.76 430.56 253.517 431.953C254.201 433.212 255.614 433.908 257.496 433.908Z" fill="black"/>
<path d="M250.242 483.646H152.038C149.435 483.646 147.326 481.533 147.326 478.93V477.699H254.958V478.93C254.958 481.533 252.845 483.646 250.242 483.646Z" fill="black"/>
<path d="M125.033 206.05C98.0085 197.513 63.058 236.305 70.0975 268.211C72.0365 277.011 69.8911 290.321 79.5334 295.183C96.6362 303.805 107.392 293.365 111.784 300.299C115.593 306.311 102.061 314.973 103.688 327.542C106.109 346.22 139.63 355.235 143.431 356.259C146.273 357.024 186.275 367.245 205.256 345.953C209.826 340.824 215.822 330.902 212.616 324.6C209.559 318.588 200.172 319.88 197.897 313.553C195.922 308.076 202.212 305.007 201.577 298.826C200.35 286.909 175.734 286.293 172.872 273.793C170.585 263.795 184.883 257.921 182.442 248.019C180.47 240.037 170.176 239.822 153.737 229.613C134.052 217.388 135.27 209.284 125.033 206.05Z" fill="black"/>
<path d="M155.207 373.196C155.863 372.868 164.72 362.416 169.901 356.259C169.508 354.551 169.569 354.004 169.707 351.414C169.707 351.414 167.023 348.726 168.1 345.228C169.355 341.168 173.208 344.427 173.208 344.427C173.208 344.427 174.994 341.306 181.705 346.69C188.417 352.069 195.509 345.524 195.509 345.524C195.509 345.524 195.505 349.556 191.959 354.454C190.004 357.158 189.672 360.728 189.578 364.064L185.818 363.525C183.749 365.978 182.211 367.181 179.365 368.359C179.365 368.359 177.119 367.946 174.787 366.015L170.666 375.406L174.868 377.612C174.868 377.612 175.815 383.506 164.776 384.976C153.738 386.449 144.905 377.612 144.905 377.612C144.905 377.612 150.795 375.406 155.207 373.196Z" fill="white"/>
<path d="M173.982 378.167C173.953 378.648 173.783 379.507 173.079 380.43C171.674 382.275 168.76 383.538 164.659 384.085C156.341 385.194 149.216 380.098 146.605 377.92C148.629 377.126 152.499 375.556 155.612 374.001C155.912 373.852 156.535 373.536 170.59 356.838C170.772 356.619 170.841 356.332 170.78 356.057C170.436 354.567 170.46 354.101 170.586 351.875L170.606 351.462C170.622 351.207 170.525 350.96 170.347 350.778C170.254 350.685 168.06 348.41 168.962 345.495C169.201 344.722 169.545 344.265 169.986 344.135C170.82 343.892 172.124 344.69 172.626 345.115C172.832 345.289 173.099 345.358 173.362 345.313C173.626 345.269 173.856 345.107 173.99 344.876C173.99 344.876 174.229 344.548 174.864 344.455C175.686 344.33 177.597 344.548 181.143 347.39C186.251 351.486 191.578 349.228 194.291 347.523C193.91 349.074 193.072 351.381 191.23 353.927C189.352 356.522 188.866 359.793 188.717 363.031L185.948 362.635C185.64 362.59 185.332 362.707 185.13 362.942C183.159 365.282 181.758 366.359 179.289 367.415C178.686 367.253 177.042 366.715 175.358 365.322C175.144 365.14 174.852 365.076 174.581 365.14C174.306 365.205 174.075 365.395 173.962 365.65L169.841 375.042C169.65 375.475 169.829 375.981 170.245 376.199L173.982 378.167ZM162.243 386.044C163.109 386.044 163.995 385.987 164.898 385.87C169.598 385.243 172.848 383.757 174.561 381.45C176.054 379.446 175.767 377.551 175.755 377.47C175.71 377.191 175.536 376.948 175.285 376.819L171.824 374.997L175.152 367.415C177.273 368.873 179.115 369.225 179.204 369.241C179.374 369.273 179.552 369.253 179.71 369.188C182.479 368.043 184.11 366.869 186.182 364.484L189.453 364.954C189.708 364.99 189.963 364.918 190.158 364.752C190.356 364.59 190.473 364.347 190.477 364.092C190.571 360.817 190.902 357.449 192.688 354.98C196.359 349.904 196.408 345.702 196.408 345.524C196.408 345.167 196.197 344.844 195.869 344.698C195.545 344.556 195.161 344.621 194.898 344.86C194.631 345.107 188.283 350.81 182.268 345.985C179.074 343.427 176.443 342.322 174.447 342.698C173.873 342.811 173.439 343.026 173.124 343.253C172.298 342.718 170.861 342.006 169.48 342.411C168.424 342.718 167.671 343.581 167.242 344.965C166.23 348.244 168.055 350.855 168.792 351.737L168.788 351.774C168.675 353.834 168.634 354.587 168.93 356.016C157.122 370.042 155.09 372.127 154.746 372.423C150.431 374.572 144.646 376.75 144.589 376.77C144.302 376.879 144.091 377.122 144.027 377.422C143.962 377.721 144.051 378.033 144.269 378.248C144.614 378.592 152.187 386.044 162.243 386.044Z" fill="black"/>
<path d="M174.788 366.913C175.03 366.913 175.277 366.812 175.456 366.618C175.788 366.245 175.759 365.679 175.387 365.347L174.172 364.25C173.808 363.918 173.237 363.946 172.905 364.318C172.573 364.687 172.601 365.254 172.97 365.586L174.184 366.683C174.354 366.836 174.573 366.913 174.788 366.913Z" fill="black"/>
<path d="M530.023 245.575L569.525 337.047L534.598 325.519L515.329 356.919L491.628 259.204L530.023 245.575Z" fill="white"/>
<path d="M534.597 324.62C534.294 324.62 533.998 324.778 533.832 325.049L515.693 354.603L492.693 259.779L529.529 246.704L567.905 335.566L534.881 324.664C534.788 324.636 534.695 324.62 534.597 324.62ZM515.329 357.818C515.637 357.818 515.928 357.656 516.094 357.388L534.994 326.595L569.243 337.901C569.579 338.011 569.949 337.914 570.188 337.654C570.428 337.391 570.491 337.015 570.351 336.691L530.849 245.218C530.659 244.785 530.169 244.571 529.72 244.729L491.324 258.354C490.891 258.508 490.644 258.965 490.754 259.415L514.455 357.129C514.54 357.482 514.827 357.749 515.187 357.805C515.236 357.814 515.28 357.818 515.329 357.818Z" fill="black"/>
<path d="M495.231 262.597L468.202 358.502L448.371 327.514L413.623 339.711L456.848 248.939L495.231 262.597Z" fill="white"/>
<path d="M494.138 263.163L467.882 356.328L449.132 327.028C448.905 326.676 448.468 326.527 448.076 326.664L415.364 338.148L457.309 250.056L494.138 263.163ZM468.202 359.4C468.247 359.4 468.291 359.396 468.336 359.388C468.684 359.34 468.971 359.085 469.068 358.745L496.097 262.839C496.226 262.386 495.98 261.908 495.534 261.75L457.147 248.088C456.714 247.935 456.232 248.133 456.034 248.55L412.809 339.326C412.651 339.654 412.708 340.043 412.951 340.314C413.194 340.585 413.574 340.682 413.919 340.561L447.999 328.599L467.445 358.983C467.611 359.246 467.899 359.4 468.202 359.4Z" fill="black"/>
<path d="M416.688 222.185L427.472 235.272L422.497 251.488L437.482 259.435L439.101 276.319L455.982 277.942L463.92 292.932L480.128 287.953L493.211 298.745L506.294 287.953L522.506 292.932L530.445 277.938L547.324 276.319L548.944 259.43L563.929 251.488L558.953 235.272L569.737 222.185L558.953 209.094L563.929 192.877L548.943 184.935L547.323 168.047L530.445 166.428L522.506 151.434L506.294 156.413L493.211 145.625L480.128 156.413L463.92 151.434L455.982 166.428L439.101 168.047L437.482 184.935L422.497 192.877L427.472 209.094L416.688 222.185Z" fill="black"/>
<path d="M439.49 222.647C439.49 252.59 463.749 276.857 493.676 276.857C523.603 276.857 547.862 252.59 547.862 222.647C547.862 192.708 523.603 168.44 493.676 168.44C463.749 168.44 439.49 192.708 439.49 222.647Z" fill="white"/>
<path d="M493.677 169.339C523.061 169.339 546.963 193.254 546.963 222.647C546.963 252.044 523.061 275.959 493.677 275.959C464.296 275.959 440.389 252.044 440.389 222.647C440.389 193.254 464.296 169.339 493.677 169.339ZM493.677 277.76C524.053 277.76 548.763 253.035 548.763 222.647C548.763 192.263 524.053 167.537 493.677 167.537C463.3 167.537 438.592 192.263 438.592 222.647C438.592 253.035 463.3 277.76 493.677 277.76Z" fill="black"/>
<path d="M488.649 250.072C487.921 250.072 487.216 249.776 486.706 249.246L465.895 227.621C464.863 226.545 464.896 224.836 465.968 223.804C467.041 222.772 468.749 222.804 469.786 223.877L488.301 243.117L514.925 204.394C515.771 203.163 517.451 202.856 518.677 203.698C519.904 204.544 520.216 206.224 519.374 207.45L490.876 248.902C490.414 249.57 489.682 249.995 488.872 250.064C488.799 250.068 488.726 250.072 488.649 250.072Z" fill="black"/>
<path d="M279.36 215.713L289.245 217.239L295.649 210.292C297.025 208.803 299.676 209.592 300.134 211.632L302.271 221.121L311.472 225.282C313.452 226.181 313.65 228.82 311.808 229.751L303.239 234.091L302.526 243.607C302.372 245.652 299.842 246.494 298.248 245.032L290.815 238.224L281.173 239.94C279.096 240.312 277.34 238.191 278.194 236.353L282.165 227.808L276.919 219.352C275.793 217.534 277.234 215.385 279.36 215.713Z" fill="black"/>
<path d="M240.559 194.537L250.278 196.464L256.82 189.688C258.229 188.231 260.823 189.133 261.212 191.214L263.025 200.889L271.984 205.451C273.91 206.435 274.024 209.11 272.174 209.981L263.576 214.037L262.572 223.635C262.353 225.695 259.832 226.448 258.297 224.906L251.169 217.737L241.587 219.105C239.531 219.396 237.855 217.186 238.758 215.36L242.951 206.876L238.037 198.124C236.977 196.242 238.47 194.125 240.559 194.537Z" fill="black"/>
<path d="M198.427 176.86L208.049 178.341L214.166 171.132C215.482 169.581 218.068 170.375 218.542 172.472L220.748 182.223L229.739 186.429C231.674 187.332 231.9 190.048 230.127 191.024L221.869 195.569L221.307 205.378C221.185 207.487 218.74 208.377 217.17 206.884L209.863 199.937L200.524 201.795C198.516 202.196 196.776 200.026 197.581 198.128L201.322 189.291L196.112 180.632C194.991 178.77 196.359 176.54 198.427 176.86Z" fill="black"/>
<path d="M157.785 159.608L167.335 161.494L173.751 154.548C175.131 153.054 177.681 153.952 178.066 156.07L179.859 165.906L188.668 170.485C190.558 171.468 190.671 174.192 188.858 175.095L180.418 179.289L179.442 189.065C179.236 191.166 176.754 191.951 175.248 190.393L168.237 183.147L158.83 184.612C156.806 184.924 155.158 182.685 156.045 180.823L160.154 172.152L155.312 163.279C154.272 161.372 155.733 159.203 157.785 159.608Z" fill="black"/>
</g>
<defs>
<clipPath id="clip0_38_2">
<rect width="880" height="880" fill="white" transform="matrix(-1 0 0 1 880 0)"/>
</clipPath>
</defs>
</svg>
